<svg width="48" height="48" viewBox="0 0 48 48" fill="none" xmlns="http://www.w3.org/2000/svg" xmlns:xlink="http://www.w3.org/1999/xlink">
<mask id="mask0_2_1" style="mask-type:alpha" maskUnits="userSpaceOnUse" x="0" y="0" width="48" height="48">
<circle cx="24" cy="24" r="24" fill="#044487"/>
</mask>
<g mask="url(#mask0_2_1)">
<rect width="48" height="48" fill="url(#pattern0)"/>
</g>
<path d="M29.6527 10.6667H18.3474C14.1187 10.6667 10.6667 14.1187 10.6667 18.3473V29.6526C10.6667 33.8813 14.1187 37.3333 18.3474 37.3333H29.6527C33.8814 37.3333 37.3334 33.8813 37.3334 29.6526V18.3473C37.3334 14.1187 33.9677 10.6667 29.6527 10.6667ZM34.917 29.8252C34.917 32.6731 32.6732 34.9169 29.8253 34.9169H18.2611C15.4132 34.9169 13.1694 32.6731 13.1694 29.8252V18.3473C13.1694 15.4995 15.4132 13.2557 18.2611 13.2557H29.8253C32.6732 13.2557 34.917 15.4995 34.917 18.3473V29.8252Z" fill="white"/>
<path d="M24.0427 17.1392C20.2455 17.1392 17.1387 20.246 17.1387 24.0432C17.1387 27.8403 20.2455 30.9471 24.0427 30.9471C27.8399 30.9471 30.9467 27.8403 30.9467 24.0432C30.9467 20.246 27.8399 17.1392 24.0427 17.1392ZM24.0427 28.5307C21.54 28.5307 19.5551 26.5458 19.5551 24.0432C19.5551 21.5405 21.54 19.5556 24.0427 19.5556C26.5454 19.5556 28.5303 21.5405 28.5303 24.0432C28.5303 26.5458 26.5454 28.5307 24.0427 28.5307Z" fill="white"/>
<path d="M31.2061 18.52C32.1117 18.52 32.8458 17.7858 32.8458 16.8803C32.8458 15.9747 32.1117 15.2406 31.2061 15.2406C30.3005 15.2406 29.5664 15.9747 29.5664 16.8803C29.5664 17.7858 30.3005 18.52 31.2061 18.52Z" fill="white"/>
<defs>
<pattern id="pattern0" patternContentUnits="objectBoundingBox" width="1" height="1">
<use xlink:href="#image0_2_1" transform="translate(0 -0.00578035) scale(0.00578035)"/>
</pattern>

</defs>
</svg>
